{"title":"Django.Unchained.2012.BRRip.XviD.Ac3.Feel-Free","uid":8306155,"size":2005610113,"categoryP":"video","categoryS":"movies","magnet":"?xt=urn:btih:bc6061dca55cfe2b2ab3e1eb1303b7331d40c917&amp;dn=Django.Unchained.2012.BRRip.XviD.Ac3.Feel-Free&amp;tr=udp%3A%2F%2Ftracker.openbittorrent.com%3A80&amp;tr=udp%3A%2F%2Fopen.demonii.com%3A1337&amp;tr=udp%3A%2F%2Ftracker.coppersurfer.tk%3A6969&amp;tr=udp%3A%2F%2Fexodus.desync.com%3A6969","seeders":1,"leechers":0,"uploader":"Gh0stNet","files":8,"time":1364382605,"description":"Genre:Action | Drama | Western\nLanguage:English\nIMDb:http://www.imdb.com/title/tt1853728/\nSource:1080p BluRay x264-SPARKS Thanks\nEncoder:Tony\n\nFormat                                   : AVI\nFormat/Info                              : Audio Video Interleave\nFile size                                : 1.87 GiB\nDuration                                 : 2h 45mn\nOverall bit rate                         : 1 616 Kbps\n\nVideo\nID                                       : 0\nFormat                                   : MPEG-4 Visual\nFormat profile                           : Advanced Simple@L5\nFormat settings, BVOP                    : 1\nFormat settings, QPel                    : No\nFormat settings, GMC                     : No warppoints\nFormat settings, Matrix                  : Default (H.263)\nCodec ID                                 : XVID\nCodec ID/Hint                            : XviD\nDuration                                 : 2h 45mn\nBit rate                                 : 1 223 Kbps\nWidth                                    : 624 pixels\nHeight                                   : 264 pixels\nDisplay aspect ratio                     : 2.35:1\nFrame rate                               : 23.976 fps\nColor space                              : YUV\nChroma subsampling                       : 4:2:0\nBit depth                                : 8 bits\nScan type                                : Progressive\nCompression mode                         : Lossy\nBits/(Pixel*Frame)                       : 0.310\nStream size                              : 1.41 GiB (76%)\nWriting library                          : XviD 1.2.1 (UTC 2008-12-04)\n\nAudio\nID                                       : 1\nFormat                                   : AC-3\nFormat/Info                              : Audio Coding 3\nMode extension                           : CM (complete main)\nCodec ID                                 : 2000\nDuration                                 : 2h 45mn\nBit rate mode                            : Constant\nBit rate                                 : 384 Kbps\nChannel(s)                               : 6 channels\nChannel positions                        : Front: L C R, Side: L R, LFE\nSampling rate                            : 48.0 KHz\nBit depth                                : 16 bits\nCompression mode                         : Lossy\nStream size                              : 454 MiB (24%)\nAlignment                                : Aligned on interleaves\nInterleave, duration                     : 42 ms (1.00 video frame)\nInterleave, preload duration             : 512 ms\n\n \nPlot:\n With the help of his mentor, a slave-turned-bounty hunter sets out to rescue his wife from a brutal Mississippi plantation owner.\n","torrent":{"xt":"urn:btih:bc6061dca55cfe2b2ab3e1eb1303b7331d40c917","amp;dn":"Django.Unchained.2012.BRRip.XviD.Ac3.Feel-Free","amp;tr":["udp%3A%2F%2Ftracker.openbittorrent.com%3A80","udp%3A%2F%2Fopen.demonii.com%3A1337","udp%3A%2F%2Ftracker.coppersurfer.tk%3A6969","udp%3A%2F%2Fexodus.desync.com%3A6969"],"infoHash":"bc6061dca55cfe2b2ab3e1eb1303b7331d40c917","infoHashBuffer":{"type":"Buffer","data":[188,96,97,220,165,92,254,43,42,179,225,235,19,3,183,51,29,64,201,23]},"announce":[],"urlList":[]}}